<?xml version="1.0" standalone="no"?>
<!DOCTYPE svg PUBLIC "-//W3C//DTD SVG 20010904//EN"
 "http://www.w3.org/TR/2001/REC-SVG-20010904/DTD/svg10.dtd">
<svg version="1.0" xmlns="http://www.w3.org/2000/svg"
 width="24.000000pt" height="24.000000pt" viewBox="0 0 24.000000 24.000000"
 preserveAspectRatio="xMidYMid meet">
<metadata>
Created by potrace 1.10, written by Peter Selinger 2001-2011
</metadata>
<g transform="translate(0.000000,24.000000) scale(0.100000,-0.100000)"
fill="#fff33b" stroke="none">
<path d="M24 187 c-3 -8 -4 -43 -2 -78 l3 -64 95 0 95 0 0 75 0 75 -93 3 c-72
2 -94 0 -98 -11z m176 -14 c0 -5 -18 -18 -40 -30 l-40 -21 -40 21 c-22 12 -40
25 -40 30 0 4 36 7 80 7 44 0 80 -3 80 -7z m-108 -55 c26 -18 27 -18 60 2 45
27 48 26 48 -20 l0 -40 -80 0 -80 0 0 46 c0 48 0 48 52 12z"/>
</g>
</svg>
