<?xml version="1.0" standalone="no"?>
<!DOCTYPE svg PUBLIC "-//W3C//DTD SVG 20010904//EN"
 "http://www.w3.org/TR/2001/REC-SVG-20010904/DTD/svg10.dtd">
<svg version="1.0" xmlns="http://www.w3.org/2000/svg"
 width="50.000000pt" height="50.000000pt" viewBox="0 0 50.000000 50.000000"
 preserveAspectRatio="xMidYMid meet">
<metadata>
Created by potrace 1.10, written by Peter Selinger 2001-2011
</metadata>
<g transform="translate(0.000000,50.000000) scale(0.100000,-0.100000)"
fill="#fff33b" stroke="none">
<path d="M180 468 c-19 -5 -47 -19 -63 -30 -33 -24 -87 -95 -87 -115 0 -25 19
-13 36 22 9 20 22 33 28 30 6 -3 19 -8 29 -11 14 -5 17 -13 13 -30 -5 -17 -2
-24 9 -24 9 0 15 9 15 21 0 15 4 19 16 15 9 -3 27 -6 40 -6 15 0 24 -6 24 -15
0 -8 5 -15 10 -15 6 0 10 7 10 15 0 9 9 15 24 15 13 0 31 3 39 6 9 3 16 -3 20
-15 3 -12 10 -21 16 -21 7 0 9 9 5 24 -4 17 -1 25 13 30 10 3 23 8 29 11 6 3
19 -10 28 -30 17 -35 36 -47 36 -22 0 20 -54 91 -87 115 -54 38 -133 50 -203
30z m60 -58 c0 -49 -1 -50 -29 -50 -17 0 -33 5 -36 11 -8 12 40 89 55 89 6 0
10 -22 10 -50z m68 10 c28 -42 24 -54 -16 -58 l-32 -3 0 51 c0 60 12 62 48 10z
m-139 -9 c-15 -30 -24 -38 -40 -34 -33 9 -31 21 8 47 51 35 56 33 32 -13z
m194 13 c39 -26 41 -38 9 -46 -13 -4 -24 6 -40 33 -26 46 -20 48 31 13z"/>
<path d="M30 276 c0 -8 5 -18 10 -21 6 -3 10 -15 10 -26 0 -29 27 -23 38 9 l9
27 13 -28 c8 -15 18 -26 23 -24 15 5 39 77 26 77 -6 0 -13 -9 -16 -20 -3 -11
-9 -20 -13 -20 -4 0 -10 9 -13 20 -3 11 -10 20 -17 20 -7 0 -14 -9 -17 -20 -3
-11 -9 -20 -13 -20 -4 0 -10 9 -13 20 -6 23 -27 27 -27 6z"/>
<path d="M185 273 c4 -10 10 -28 12 -40 7 -31 31 -29 39 2 3 14 10 25 14 25 4
0 11 -11 14 -25 8 -31 32 -33 39 -2 2 12 8 30 12 40 4 11 3 17 -5 17 -6 0 -14
-9 -17 -20 -3 -11 -9 -20 -13 -20 -4 0 -10 9 -13 20 -3 11 -10 20 -17 20 -7 0
-14 -9 -17 -20 -3 -11 -9 -20 -13 -20 -4 0 -10 9 -13 20 -3 11 -11 20 -17 20
-8 0 -9 -6 -5 -17z"/>
<path d="M330 286 c0 -2 7 -20 15 -40 17 -40 31 -46 40 -16 3 11 10 20 15 20
5 0 12 -9 15 -20 3 -11 10 -20 15 -20 11 0 45 69 37 76 -9 9 -27 -6 -27 -22 0
-21 -17 -17 -23 6 -3 11 -10 20 -17 20 -7 0 -14 -9 -17 -20 -3 -11 -9 -20 -13
-20 -4 0 -10 9 -13 20 -4 16 -27 30 -27 16z"/>
<path d="M30 177 c0 -21 54 -91 88 -116 47 -33 122 -47 183 -33 28 7 65 22 81
33 34 25 88 95 88 116 0 25 -19 13 -36 -22 -9 -20 -22 -33 -28 -30 -6 3 -19 8
-29 11 -13 5 -17 14 -14 30 3 16 0 24 -9 24 -8 0 -14 -10 -14 -21 0 -17 -4
-20 -22 -15 -13 3 -31 6 -40 6 -10 0 -18 7 -18 15 0 8 -4 15 -10 15 -5 0 -10
-7 -10 -15 0 -8 -8 -15 -17 -15 -10 0 -28 -3 -40 -6 -19 -5 -23 -2 -23 15 0
11 -6 21 -14 21 -9 0 -12 -8 -9 -24 3 -16 -1 -25 -14 -30 -10 -3 -23 -8 -29
-11 -6 -3 -19 10 -28 30 -17 35 -36 47 -36 22z m210 -87 c0 -27 -4 -50 -10
-50 -15 0 -63 77 -55 89 3 6 19 11 36 11 28 0 29 -1 29 -50z m87 34 c4 -13
-38 -76 -54 -82 -9 -2 -13 11 -13 48 l0 51 32 -3 c17 -2 33 -8 35 -14z m-158
-34 c11 -22 17 -40 13 -40 -10 0 -82 49 -82 56 0 2 10 9 23 14 12 5 23 9 23 9
1 1 11 -17 23 -39z m226 19 c5 -8 -62 -59 -78 -59 -4 0 2 17 15 39 16 27 27
37 40 33 10 -2 21 -8 23 -13z"/>
</g>
</svg>
