<?xml version="1.0" standalone="no"?>
<!DOCTYPE svg PUBLIC "-//W3C//DTD SVG 20010904//EN"
 "http://www.w3.org/TR/2001/REC-SVG-20010904/DTD/svg10.dtd">
<svg version="1.0" xmlns="http://www.w3.org/2000/svg"
 width="48.000000pt" height="48.000000pt" viewBox="0 0 48.000000 48.000000"
 preserveAspectRatio="xMidYMid meet">
<metadata>
Created by potrace 1.10, written by Peter Selinger 2001-2011
</metadata>
<g transform="translate(0.000000,48.000000) scale(0.100000,-0.100000)"
fill="#000000" stroke="none">
<path d="M60 380 c-18 -18 -20 -33 -20 -140 0 -166 -7 -160 200 -160 207 0
200 -6 200 160 0 166 7 160 -200 160 -147 0 -162 -2 -180 -20z m338 -22 c24
-24 11 -37 -74 -81 l-85 -45 -84 47 c-85 46 -95 57 -73 79 17 17 299 17 316 0z
m-73 -114 l85 46 0 -78 c0 -47 -5 -83 -12 -90 -17 -17 -299 -17 -316 0 -7 7
-12 43 -12 90 l0 78 85 -46 85 -46 85 46z"/>
</g>
</svg>
