<?xml version="1.0" standalone="no"?>
<!DOCTYPE svg PUBLIC "-//W3C//DTD SVG 20010904//EN"
 "http://www.w3.org/TR/2001/REC-SVG-20010904/DTD/svg10.dtd">
<svg version="1.0" xmlns="http://www.w3.org/2000/svg"
 width="50.000000pt" height="50.000000pt" viewBox="0 0 50.000000 50.000000"
 preserveAspectRatio="xMidYMid meet">
<metadata>
Created by potrace 1.10, written by Peter Selinger 2001-2011
</metadata>
<g transform="translate(0.000000,50.000000) scale(0.100000,-0.100000)"
fill="#000000" stroke="none">
<path d="M175 468 c-16 -6 -43 -20 -58 -31 -33 -23 -87 -94 -87 -114 0 -24 19
-13 35 21 15 32 18 33 46 22 24 -8 29 -16 26 -33 -3 -15 1 -23 9 -23 8 0 14
10 14 21 0 17 4 20 23 15 12 -3 30 -6 40 -6 9 0 17 -7 17 -15 0 -8 5 -15 10
-15 6 0 10 7 10 15 0 8 8 15 18 15 9 0 27 3 40 6 18 5 22 2 22 -15 0 -11 6
-21 14 -21 8 0 12 8 9 23 -3 17 2 25 26 33 28 11 31 10 46 -22 16 -34 35 -45
35 -21 0 21 -54 91 -87 114 -59 42 -143 54 -208 31z m65 -58 c0 -45 -2 -50
-22 -50 -13 0 -29 4 -37 9 -21 13 21 79 57 90 1 1 2 -21 2 -49z m71 3 c24 -38
16 -53 -28 -53 -21 0 -23 5 -23 50 0 58 16 59 51 3z m-143 0 c-12 -21 -22 -39
-22 -40 -1 -1 -12 4 -25 11 l-24 13 39 27 c52 35 57 33 32 -11z m196 11 l39
-27 -24 -13 c-13 -7 -24 -12 -25 -11 0 1 -10 19 -22 40 -25 44 -20 46 32 11z"/>
<path d="M33 275 c4 -9 10 -28 13 -41 8 -31 32 -31 40 1 3 14 10 25 14 25 4 0
11 -11 14 -25 9 -36 31 -31 44 12 6 20 10 39 7 41 -8 9 -25 -10 -25 -29 0 -11
-4 -17 -10 -14 -5 3 -10 15 -10 26 0 12 -7 19 -20 19 -13 0 -20 -7 -20 -19 0
-28 -18 -36 -22 -9 -2 12 -9 24 -17 26 -10 3 -12 0 -8 -13z"/>
<path d="M184 274 c3 -9 9 -27 12 -40 8 -31 32 -31 40 1 3 14 10 25 14 25 4 0
11 -11 14 -25 9 -36 31 -31 44 12 6 20 10 39 7 41 -8 9 -25 -10 -25 -29 0 -11
-4 -17 -10 -14 -5 3 -10 15 -10 26 0 12 -7 19 -20 19 -13 0 -20 -7 -20 -19 0
-11 -4 -23 -10 -26 -6 -4 -10 5 -10 19 0 17 -5 26 -16 26 -11 0 -14 -5 -10
-16z"/>
<path d="M333 275 c4 -9 10 -28 13 -41 8 -31 32 -31 40 1 3 14 10 25 14 25 4
0 11 -11 14 -25 9 -36 31 -31 44 12 6 20 10 39 7 41 -8 9 -25 -10 -25 -29 0
-11 -4 -17 -10 -14 -5 3 -10 15 -10 26 0 12 -7 19 -20 19 -13 0 -20 -7 -20
-19 0 -28 -18 -36 -22 -9 -2 12 -9 24 -17 26 -10 3 -12 0 -8 -13z"/>
<path d="M30 177 c0 -21 54 -91 87 -114 81 -57 185 -57 266 0 33 23 87 93 87
114 0 24 -19 13 -35 -21 -15 -32 -18 -33 -46 -22 -24 8 -29 16 -26 33 3 15 -1
23 -9 23 -8 0 -14 -10 -14 -21 0 -17 -4 -20 -22 -15 -13 3 -31 6 -40 6 -10 0
-18 7 -18 15 0 8 -4 15 -10 15 -5 0 -10 -7 -10 -15 0 -8 -8 -15 -17 -15 -10 0
-28 -3 -40 -6 -19 -5 -23 -2 -23 15 0 11 -6 21 -14 21 -8 0 -12 -8 -9 -23 3
-17 -2 -25 -26 -33 -28 -11 -31 -10 -46 22 -16 34 -35 45 -35 21z m210 -87 c0
-58 -16 -59 -51 -3 -24 38 -16 53 29 53 20 0 22 -5 22 -50z m79 41 c11 -7 10
-15 -8 -44 -35 -56 -51 -55 -51 3 0 45 2 50 23 50 12 0 28 -4 36 -9z m-135
-80 c-2 -2 -22 9 -45 24 l-42 28 24 12 c22 12 25 11 45 -23 11 -21 19 -39 18
-41z m214 54 c4 -4 -70 -55 -79 -55 -4 0 2 18 14 39 19 34 24 38 42 29 11 -6
21 -12 23 -13z"/>
</g>
</svg>
